<?xml version="1.0" encoding="UTF-8"?>
<svg width="1744px" height="326px" viewBox="0 0 1744 326" version="1.1" xmlns="http://www.w3.org/2000/svg" xmlns:xlink="http://www.w3.org/1999/xlink">
    <title>Artboard Copy 15</title>
    <defs>
        <linearGradient x1="50%" y1="99.8043317%" x2="50%" y2="0.513548951%" id="linearGradient-1">
            <stop stop-color="#2185D0" offset="0%"></stop>
            <stop stop-color="#00B5AD" offset="100%"></stop>
        </linearGradient>
        <linearGradient x1="50%" y1="100%" x2="50%" y2="0.513548951%" id="linearGradient-2">
            <stop stop-color="#2185D0" offset="0%"></stop>
            <stop stop-color="#00B5AD" offset="100%"></stop>
        </linearGradient>
        <path d="M163,271.173977 C163,284.214673 163,138.829367 163,118.564667 C163,98.2999671 242.170935,59.3904681 258.275837,66.4324432 C274.380739,73.4744183 278.644911,141.372515 258.275837,164.180363 C237.906763,186.988211 163,258.133281 163,271.173977 Z" id="path-3"></path>
        <filter x="-28.0%" y="-14.6%" width="156.0%" height="119.7%" filterUnits="objectBoundingBox" id="filter-4">
            <feMorphology radius="5" operator="erode" in="SourceAlpha" result="shadowSpreadOuter1"></feMorphology>
            <feOffset dx="0" dy="1" in="shadowSpreadOuter1" result="shadowOffsetOuter1"></feOffset>
            <feGaussianBlur stdDeviation="15" in="shadowOffsetOuter1" result="shadowBlurOuter1"></feGaussianBlur>
            <feColorMatrix values="0 0 0 0 0   0 0 0 0 0   0 0 0 0 0  0 0 0 0.5 0" type="matrix" in="shadowBlurOuter1"></feColorMatrix>
        </filter>
        <linearGradient x1="50%" y1="100%" x2="50%" y2="0.513548951%" id="linearGradient-5">
            <stop stop-color="#00B5AD" offset="0%"></stop>
            <stop stop-color="#2185D0" offset="100%"></stop>
        </linearGradient>
        <linearGradient x1="50%" y1="0%" x2="50%" y2="100%" id="linearGradient-6">
            <stop stop-color="#2185D0" offset="0%"></stop>
            <stop stop-color="#00B5AD" offset="100%"></stop>
        </linearGradient>
        <path d="M-1.30739863e-12,219.026701 C-1.30739863e-12,239.885986 -1.30739863e-12,119.718453 -1.30739863e-12,69.6385211 C-1.30739863e-12,19.5585895 111.93559,0 130.984861,0 C150.034133,0 157.040412,92.4877489 130.984861,130.572227 C104.929311,168.656705 -1.30739863e-12,198.167416 -1.30739863e-12,219.026701 Z" id="path-7"></path>
        <filter x="-20.6%" y="-13.3%" width="141.2%" height="119.8%" filterUnits="objectBoundingBox" id="filter-8">
            <feMorphology radius="5" operator="erode" in="SourceAlpha" result="shadowSpreadOuter1"></feMorphology>
            <feOffset dx="0" dy="1" in="shadowSpreadOuter1" result="shadowOffsetOuter1"></feOffset>
            <feGaussianBlur stdDeviation="15" in="shadowOffsetOuter1" result="shadowBlurOuter1"></feGaussianBlur>
            <feColorMatrix values="0 0 0 0 0   0 0 0 0 0   0 0 0 0 0  0 0 0 0.5 0" type="matrix" in="shadowBlurOuter1"></feColorMatrix>
        </filter>
        <linearGradient x1="0%" y1="50%" x2="100%" y2="50%" id="linearGradient-9">
            <stop stop-color="#2185D0" offset="0%"></stop>
            <stop stop-color="#00B5AD" offset="100%"></stop>
        </linearGradient>
    </defs>
    <g id="Page-1" stroke="none" stroke-width="1" fill="none" fill-rule="evenodd">
        <g id="Artboard-Copy-15" transform="translate(-80.000000, -93.000000)">
            <g id="Group" transform="translate(110.000000, 120.000000)">
                <path d="M163,219.026701 C163,142.680152 163,91.8103817 163,66.4173913 C163,28.3279057 274.93559,0 293.984861,0 C313.034133,0 320.040412,92.8523453 293.984861,131.086957 C276.614495,156.576697 232.952874,185.889946 163,219.026701 Z" id="Path" fill="url(#linearGradient-1)"></path>
                <g id="Path" transform="translate(217.500000, 168.795684) scale(1, -1) translate(-217.500000, -168.795684) ">
                    <use fill="black" fill-opacity="1" filter="url(#filter-4)" xlink:href="#path-3"></use>
                    <use fill="url(#linearGradient-2)" fill-rule="evenodd" xlink:href="#path-3"></use>
                </g>
                <path d="M39,271.156419 C39,284.197115 39,142.032939 39,121.768239 C39,101.503539 118.170935,62.5940398 134.275837,69.6360149 C150.380739,76.6779899 154.644911,144.576087 134.275837,167.383935 C113.906763,190.191783 39,258.115723 39,271.156419 Z" id="Path" fill="url(#linearGradient-5)" transform="translate(93.500000, 170.397470) scale(-1, -1) translate(-93.500000, -170.397470) "></path>
                <g id="Path" transform="translate(74.000000, 110.717031) scale(-1, 1) translate(-74.000000, -110.717031) ">
                    <use fill="black" fill-opacity="1" filter="url(#filter-8)" xlink:href="#path-7"></use>
                    <use fill="url(#linearGradient-6)" fill-rule="evenodd" xlink:href="#path-7"></use>
                </g>
            </g>
            <path d="M513,333.5 C515.666667,333.5 518.083333,333.291667 520.25,332.875 C522.416667,332.458333 524.166667,332 525.5,331.5 L525.5,331.5 L525.5,279.75 L547.75,279.75 C568.416667,279.75 583.958333,275.041667 594.375,265.625 C604.791667,256.208333 610,243.666667 610,228 C610,212.333333 604.791667,199.916667 594.375,190.75 C583.958333,181.583333 567.916667,177 546.25,177 C539.916667,177 533.166667,177.333333 526,178 C518.833333,178.666667 512.666667,179.916667 507.5,181.75 C504.666667,182.583333 502.458333,183.791667 500.875,185.375 C499.291667,186.958333 498.5,189.166667 498.5,192 L498.5,192 L498.5,321 C498.5,325.5 499.625,328.708333 501.875,330.625 C504.125,332.541667 507.833333,333.5 513,333.5 Z M546,258 L525.25,258 L525.25,200.75 C528.25,200.25 531.625,199.833333 535.375,199.5 C539.125,199.166667 542.916667,199 546.75,199 C558.416667,199 567.375,201.333333 573.625,206 C579.875,210.666667 583,218 583,228 C583,238 579.708333,245.5 573.125,250.5 C566.541667,255.5 557.5,258 546,258 L546,258 Z M733,332.25 C736,332.25 738.375,331.291667 740.125,329.375 C741.875,327.458333 742.75,324.583333 742.75,320.75 C742.75,318.583333 742.416667,316.583333 741.75,314.75 C741.083333,312.916667 740.416667,311.5 739.75,310.5 L739.75,310.5 L667.75,310.5 L667.75,265 L724.25,265 C727.25,265 729.625,264.083333 731.375,262.25 C733.125,260.416667 734,257.583333 734,253.75 C734,251.583333 733.708333,249.583333 733.125,247.75 C732.541667,245.916667 731.833333,244.5 731,243.5 L731,243.5 L667.75,243.5 L667.75,202 L731.75,202 C734.75,202 737.125,201 738.875,199 C740.625,197 741.5,194.166667 741.5,190.5 C741.5,188.333333 741.208333,186.333333 740.625,184.5 C740.041667,182.666667 739.333333,181.25 738.5,180.25 L738.5,180.25 L655.75,180.25 C651.416667,180.25 647.916667,181.541667 645.25,184.125 C642.583333,186.708333 641.25,190.166667 641.25,194.5 L641.25,194.5 L641.25,317.75 C641.25,322.083333 642.583333,325.583333 645.25,328.25 C647.916667,330.916667 651.416667,332.25 655.75,332.25 L655.75,332.25 L733,332.25 Z M883.5,333.75 C887.333333,333.75 890.666667,333.25 893.5,332.25 C896.333333,331.25 898.666667,330 900.5,328.5 L900.5,328.5 L900.5,190.5 C900.5,186.166667 899.375,183.083333 897.125,181.25 C894.875,179.416667 891.25,178.5 886.25,178.5 C883.75,178.5 881.416667,178.708333 879.25,179.125 C877.083333,179.541667 875.333333,179.916667 874,180.25 L874,180.25 L874,227.75 C874,239.583333 874.083333,251.708333 874.25,264.125 C874.416667,276.541667 875.166667,289.083333 876.5,301.75 L876.5,301.75 L875.5,302 C874.333333,299.5 872.958333,296.625 871.375,293.375 C869.791667,290.125 868.125,286.75 866.375,283.25 C864.625,279.75 862.833333,276.25 861,272.75 C859.166667,269.25 857.333333,265.916667 855.5,262.75 L855.5,262.75 L814,190.75 C811.166667,185.916667 808,182.666667 804.5,181 C801,179.333333 796.916667,178.5 792.25,178.5 C788.75,178.5 785.458333,179.041667 782.375,180.125 C779.291667,181.208333 776.916667,182.666667 775.25,184.5 L775.25,184.5 L775.25,321.5 C775.25,325.833333 776.375,328.916667 778.625,330.75 C780.875,332.583333 784.5,333.5 789.5,333.5 C791.833333,333.5 794.125,333.291667 796.375,332.875 C798.625,332.458333 800.333333,332.083333 801.5,331.75 L801.5,331.75 L801.5,266.5 C801.5,257.666667 801.333333,248.291667 801,238.375 C800.666667,228.458333 800.083333,219.166667 799.25,210.5 L799.25,210.5 L800.5,210.25 C801.666667,212.75 803.041667,215.625 804.625,218.875 C806.208333,222.125 807.875,225.5 809.625,229 C811.375,232.5 813.208333,236 815.125,239.5 C817.041667,243 818.916667,246.333333 820.75,249.5 L820.75,249.5 L862,321.25 C864.833333,326.083333 867.958333,329.375 871.375,331.125 C874.791667,332.875 878.833333,333.75 883.5,333.75 Z M988.25,333.5 C990.75,333.5 993.125,333.291667 995.375,332.875 C997.625,332.458333 999.333333,332 1000.5,331.5 L1000.5,331.5 L1000.5,202.25 L1038.25,202.25 C1044.75,202.25 1048,198.333333 1048,190.5 C1048,188.333333 1047.70833,186.333333 1047.125,184.5 C1046.54167,182.666667 1045.91667,181.25 1045.25,180.25 L1045.25,180.25 L936.5,180.25 C933.5,180.25 931.125,181.208333 929.375,183.125 C927.625,185.041667 926.75,187.833333 926.75,191.5 C926.75,193.833333 927.041667,195.916667 927.625,197.75 C928.208333,199.583333 928.916667,201.083333 929.75,202.25 L929.75,202.25 L974,202.25 L974,321 C974,325.5 975.083333,328.708333 977.25,330.625 C979.416667,332.541667 983.083333,333.5 988.25,333.5 Z M1173.5,334.25 C1176.83333,334.25 1179.70833,333.708333 1182.125,332.625 C1184.54167,331.541667 1186.5,330.166667 1188,328.5 C1184.83333,318.5 1181.25,307.333333 1177.25,295 C1173.25,282.666667 1169.08333,270.083333 1164.75,257.25 C1160.41667,244.416667 1156.08333,231.958333 1151.75,219.875 C1147.41667,207.791667 1143.41667,197 1139.75,187.5 C1138.41667,184.166667 1135.83333,181.833333 1132,180.5 C1128.16667,179.166667 1123.83333,178.5 1119,178.5 C1115.33333,178.5 1111.75,178.958333 1108.25,179.875 C1104.75,180.791667 1102.16667,181.75 1100.5,182.75 C1097.16667,191.25 1093.25,201.458333 1088.75,213.375 C1084.25,225.291667 1079.79167,237.416667 1075.375,249.75 C1070.95833,262.083333 1066.79167,273.791667 1062.875,284.875 C1058.95833,295.958333 1055.91667,305 1053.75,312 C1052.91667,314.166667 1052.25,316.125 1051.75,317.875 C1051.25,319.625 1051,321.416667 1051,323.25 C1051,326.916667 1052.33333,329.666667 1055,331.5 C1057.66667,333.333333 1061.08333,334.25 1065.25,334.25 C1067.58333,334.25 1069.58333,334.083333 1071.25,333.75 C1072.91667,333.416667 1074.5,332.916667 1076,332.25 L1076,332.25 L1088.25,294 L1149.25,294 L1158.75,322.75 C1160.08333,326.916667 1161.75,329.875 1163.75,331.625 C1165.75,333.375 1169,334.25 1173.5,334.25 Z M1143.5,272.5 L1094.25,272.5 C1096.25,266.5 1098.33333,260.291667 1100.5,253.875 C1102.66667,247.458333 1104.83333,241.125 1107,234.875 C1109.16667,228.625 1111.25,222.666667 1113.25,217 C1115.25,211.333333 1117.08333,206.25 1118.75,201.75 L1118.75,201.75 L1120,201.75 C1121.16667,205.583333 1122.66667,210.208333 1124.5,215.625 C1126.33333,221.041667 1128.29167,226.833333 1130.375,233 C1132.45833,239.166667 1134.625,245.625 1136.875,252.375 C1139.125,259.125 1141.33333,265.833333 1143.5,272.5 L1143.5,272.5 Z M1280.5,335.5 C1290.16667,335.5 1298.16667,334.583333 1304.5,332.75 C1310.83333,330.916667 1315.83333,328.833333 1319.5,326.5 C1322.33333,324.833333 1324.375,323 1325.625,321 C1326.875,319 1327.5,316.833333 1327.5,314.5 C1327.5,311.666667 1326.70833,309.166667 1325.125,307 C1323.54167,304.833333 1321.83333,303.166667 1320,302 C1315.66667,305 1310.5,307.666667 1304.5,310 C1298.5,312.333333 1291.41667,313.5 1283.25,313.5 C1267.91667,313.5 1255.58333,308.666667 1246.25,299 C1236.91667,289.333333 1232.25,275.083333 1232.25,256.25 C1232.25,246.916667 1233.5,238.666667 1236,231.5 C1238.5,224.333333 1241.95833,218.333333 1246.375,213.5 C1250.79167,208.666667 1256.04167,205 1262.125,202.5 C1268.20833,200 1274.91667,198.75 1282.25,198.75 C1290.75,198.75 1297.79167,200 1303.375,202.5 C1308.95833,205 1313.91667,207.666667 1318.25,210.5 C1320.41667,209.5 1322.29167,207.916667 1323.875,205.75 C1325.45833,203.583333 1326.25,201.083333 1326.25,198.25 C1326.25,195.583333 1325.125,192.916667 1322.875,190.25 C1320.625,187.583333 1317.45833,185.25 1313.375,183.25 C1309.29167,181.25 1304.375,179.625 1298.625,178.375 C1292.875,177.125 1286.41667,176.5 1279.25,176.5 C1269.08333,176.5 1259.5,178.208333 1250.5,181.625 C1241.5,185.041667 1233.625,190.083333 1226.875,196.75 C1220.125,203.416667 1214.75,211.75 1210.75,221.75 C1206.75,231.75 1204.75,243.25 1204.75,256.25 C1204.75,269.583333 1206.70833,281.208333 1210.625,291.125 C1214.54167,301.041667 1219.91667,309.291667 1226.75,315.875 C1233.58333,322.458333 1241.58333,327.375 1250.75,330.625 C1259.91667,333.875 1269.83333,335.5 1280.5,335.5 Z M1422.25,335.5 C1432.91667,335.5 1442.75,333.791667 1451.75,330.375 C1460.75,326.958333 1468.58333,321.916667 1475.25,315.25 C1481.91667,308.583333 1487.125,300.291667 1490.875,290.375 C1494.625,280.458333 1496.5,269 1496.5,256 C1496.5,243 1494.58333,231.583333 1490.75,221.75 C1486.91667,211.916667 1481.66667,203.625 1475,196.875 C1468.33333,190.125 1460.5,185.041667 1451.5,181.625 C1442.5,178.208333 1432.75,176.5 1422.25,176.5 C1411.91667,176.5 1402.20833,178.208333 1393.125,181.625 C1384.04167,185.041667 1376.16667,190.125 1369.5,196.875 C1362.83333,203.625 1357.58333,211.916667 1353.75,221.75 C1349.91667,231.583333 1348,243 1348,256 C1348,269 1349.875,280.458333 1353.625,290.375 C1357.375,300.291667 1362.54167,308.583333 1369.125,315.25 C1375.70833,321.916667 1383.54167,326.958333 1392.625,330.375 C1401.70833,333.791667 1411.58333,335.5 1422.25,335.5 Z M1422.25,313.5 C1408.08333,313.5 1396.75,308.583333 1388.25,298.75 C1379.75,288.916667 1375.5,274.666667 1375.5,256 C1375.5,237.5 1379.79167,223.333333 1388.375,213.5 C1396.95833,203.666667 1408.25,198.75 1422.25,198.75 C1436.58333,198.75 1448,203.625 1456.5,213.375 C1465,223.125 1469.25,237.333333 1469.25,256 C1469.25,274.666667 1465,288.916667 1456.5,298.75 C1448,308.583333 1436.58333,313.5 1422.25,313.5 Z M1579.75,335 C1591.91667,335 1603,333.375 1613,330.125 C1623,326.875 1631.54167,321.916667 1638.625,315.25 C1645.70833,308.583333 1651.16667,300.208333 1655,290.125 C1658.83333,280.041667 1660.75,268.25 1660.75,254.75 C1660.75,241.75 1658.75,230.375 1654.75,220.625 C1650.75,210.875 1645.08333,202.75 1637.75,196.25 C1630.41667,189.75 1621.625,184.916667 1611.375,181.75 C1601.125,178.583333 1589.83333,177 1577.5,177 C1571,177 1564.33333,177.291667 1557.5,177.875 C1550.66667,178.458333 1544.33333,179.666667 1538.5,181.5 C1535.66667,182.333333 1533.45833,183.541667 1531.875,185.125 C1530.29167,186.708333 1529.5,188.916667 1529.5,191.75 L1529.5,191.75 L1529.5,317 C1529.5,323.5 1533.33333,328 1541,330.5 C1547.16667,332.5 1553.83333,333.75 1561,334.25 C1568.16667,334.75 1574.41667,335 1579.75,335 Z M1579.75,313 C1575.58333,313 1571.45833,312.875 1567.375,312.625 C1563.29167,312.375 1559.58333,311.833333 1556.25,311 L1556.25,311 L1556.25,200.75 C1562.08333,199.583333 1569.41667,199 1578.25,199 C1585.91667,199 1593.08333,200.083333 1599.75,202.25 C1606.41667,204.416667 1612.25,207.75 1617.25,212.25 C1622.25,216.75 1626.16667,222.541667 1629,229.625 C1631.83333,236.708333 1633.25,245.166667 1633.25,255 C1633.25,274.166667 1628.66667,288.625 1619.5,298.375 C1610.33333,308.125 1597.08333,313 1579.75,313 Z M1785.25,332.25 C1788.25,332.25 1790.625,331.291667 1792.375,329.375 C1794.125,327.458333 1795,324.583333 1795,320.75 C1795,318.583333 1794.66667,316.583333 1794,314.75 C1793.33333,312.916667 1792.66667,311.5 1792,310.5 L1792,310.5 L1720,310.5 L1720,265 L1776.5,265 C1779.5,265 1781.875,264.083333 1783.625,262.25 C1785.375,260.416667 1786.25,257.583333 1786.25,253.75 C1786.25,251.583333 1785.95833,249.583333 1785.375,247.75 C1784.79167,245.916667 1784.08333,244.5 1783.25,243.5 L1783.25,243.5 L1720,243.5 L1720,202 L1784,202 C1787,202 1789.375,201 1791.125,199 C1792.875,197 1793.75,194.166667 1793.75,190.5 C1793.75,188.333333 1793.45833,186.333333 1792.875,184.5 C1792.29167,182.666667 1791.58333,181.25 1790.75,180.25 L1790.75,180.25 L1708,180.25 C1703.66667,180.25 1700.16667,181.541667 1697.5,184.125 C1694.83333,186.708333 1693.5,190.166667 1693.5,194.5 L1693.5,194.5 L1693.5,317.75 C1693.5,322.083333 1694.83333,325.583333 1697.5,328.25 C1700.16667,330.916667 1703.66667,332.25 1708,332.25 L1708,332.25 L1785.25,332.25 Z" id="PENTACODE" fill="url(#linearGradient-9)" fill-rule="nonzero"></path>
        </g>
    </g>
</svg>