<?xml version="1.0" encoding="UTF-8"?>
<svg width="1754px" height="352px" viewBox="0 0 1754 352" version="1.1" xmlns="http://www.w3.org/2000/svg" xmlns:xlink="http://www.w3.org/1999/xlink">
    <title>logo_print_sans_claim</title>
    <defs>
        <path d="M293.984861,1.42108547e-14 C313.034133,1.42108547e-14 320.040412,92.4877489 293.984861,130.572227 C285.568784,142.873711 268.923621,154.280673 250.243517,164.790498 C253.41977,168.112715 256.145954,171.026113 258.275837,173.411005 C278.644911,196.218853 274.380739,264.11695 258.275837,271.158925 C242.170935,278.2009 163,239.291401 163,219.026701 L163,219.026701 L163,66.4173913 C163,66.6817593 163.030785,66.9700068 163.091276,67.2812469 C166.526708,18.9432022 275.237666,1.42108547e-14 293.984861,1.42108547e-14 Z M17.0151385,1.42108547e-14 C36.0644102,1.42108547e-14 148,19.5585895 148,69.6385211 L148,69.6385211 L148,219.026701 L148,219.026701 C148,239.291401 68.8290652,278.2009 52.7241632,271.158925 C36.6192611,264.11695 32.355089,196.218853 52.7241632,173.411005 C54.8679212,171.010577 57.6157748,168.110412 60.8168213,164.827089 C42.1131762,154.305883 25.4405165,142.887305 17.0151385,130.572227 C-9.04041192,92.4877489 -2.03413313,1.42108547e-14 17.0151385,1.42108547e-14 Z" id="path-1"></path>
        <linearGradient x1="50%" y1="0%" x2="50%" y2="100%" id="linearGradient-3">
            <stop stop-color="#00B5AD" offset="0%"></stop>
            <stop stop-color="#2185D0" offset="100%"></stop>
        </linearGradient>
        <linearGradient x1="50%" y1="100%" x2="50%" y2="0.513548951%" id="linearGradient-4">
            <stop stop-color="#2185D0" offset="0%"></stop>
            <stop stop-color="#00B5AD" offset="100%"></stop>
        </linearGradient>
        <path d="M163,271.173977 C163,284.214673 163,138.829367 163,118.564667 C163,98.2999671 242.170935,59.3904681 258.275837,66.4324432 C274.380739,73.4744183 278.644911,141.372515 258.275837,164.180363 C237.906763,186.988211 163,258.133281 163,271.173977 Z" id="path-5"></path>
        <filter x="-28.0%" y="-14.6%" width="156.0%" height="119.7%" filterUnits="objectBoundingBox" id="filter-6">
            <feMorphology radius="5" operator="erode" in="SourceAlpha" result="shadowSpreadOuter1"></feMorphology>
            <feOffset dx="0" dy="1" in="shadowSpreadOuter1" result="shadowOffsetOuter1"></feOffset>
            <feGaussianBlur stdDeviation="15" in="shadowOffsetOuter1" result="shadowBlurOuter1"></feGaussianBlur>
            <feColorMatrix values="0 0 0 0 0   0 0 0 0 0   0 0 0 0 0  0 0 0 0.5 0" type="matrix" in="shadowBlurOuter1"></feColorMatrix>
        </filter>
        <linearGradient x1="50%" y1="100%" x2="50%" y2="0.513548951%" id="linearGradient-7">
            <stop stop-color="#00B5AD" offset="0%"></stop>
            <stop stop-color="#2185D0" offset="100%"></stop>
        </linearGradient>
        <linearGradient x1="50%" y1="0%" x2="50%" y2="100%" id="linearGradient-8">
            <stop stop-color="#2185D0" offset="0%"></stop>
            <stop stop-color="#00B5AD" offset="100%"></stop>
        </linearGradient>
        <path d="M-1.36424205e-12,219.026701 C-1.36424205e-12,239.885986 -1.36424205e-12,119.718453 -1.36424205e-12,69.6385211 C-1.36424205e-12,19.5585895 111.93559,0 130.984861,0 C150.034133,0 157.040412,92.4877489 130.984861,130.572227 C104.929311,168.656705 -1.36424205e-12,198.167416 -1.36424205e-12,219.026701 Z" id="path-9"></path>
        <filter x="-20.6%" y="-13.3%" width="141.2%" height="119.8%" filterUnits="objectBoundingBox" id="filter-10">
            <feMorphology radius="5" operator="erode" in="SourceAlpha" result="shadowSpreadOuter1"></feMorphology>
            <feOffset dx="0" dy="1" in="shadowSpreadOuter1" result="shadowOffsetOuter1"></feOffset>
            <feGaussianBlur stdDeviation="15" in="shadowOffsetOuter1" result="shadowBlurOuter1"></feGaussianBlur>
            <feColorMatrix values="0 0 0 0 0   0 0 0 0 0   0 0 0 0 0  0 0 0 0.5 0" type="matrix" in="shadowBlurOuter1"></feColorMatrix>
        </filter>
        <linearGradient x1="0%" y1="50%" x2="100%" y2="50%" id="linearGradient-11">
            <stop stop-color="#2185D0" offset="0%"></stop>
            <stop stop-color="#00B5AD" offset="100%"></stop>
        </linearGradient>
    </defs>
    <g id="Logos-&amp;-Icons" stroke="none" stroke-width="1" fill="none" fill-rule="evenodd">
        <g id="Artboard-Copy-22" transform="translate(-74.000000, -80.000000)">
            <g id="Group" transform="translate(115.000000, 120.000000)">
                <mask id="mask-2" fill="white">
                    <use xlink:href="#path-1"></use>
                </mask>
                <g id="Mask"></g>
                <g mask="url(#mask-2)" id="Path">
                    <g transform="translate(0.000000, 0.000000)">
                        <path d="M163,219.026701 C163,239.885986 163,119.718453 163,69.6385211 C163,19.5585895 274.93559,0 293.984861,0 C313.034133,0 320.040412,92.4877489 293.984861,130.572227 C267.929311,168.656705 163,198.167416 163,219.026701 Z" fill="url(#linearGradient-3)" fill-rule="evenodd"></path>
                        <g fill="none" transform="translate(217.500000, 168.795684) scale(1, -1) translate(-217.500000, -168.795684) ">
                            <use fill="black" fill-opacity="1" filter="url(#filter-6)" xlink:href="#path-5"></use>
                            <use fill="url(#linearGradient-4)" fill-rule="evenodd" xlink:href="#path-5"></use>
                        </g>
                        <path d="M39,271.156419 C39,284.197115 39,142.032939 39,121.768239 C39,101.503539 118.170935,62.5940398 134.275837,69.6360149 C150.380739,76.6779899 154.644911,144.576087 134.275837,167.383935 C113.906763,190.191783 39,258.115723 39,271.156419 Z" fill="url(#linearGradient-7)" fill-rule="evenodd" transform="translate(93.500000, 170.397470) scale(-1, -1) translate(-93.500000, -170.397470) "></path>
                        <g fill="none" transform="translate(74.000000, 110.717031) scale(-1, 1) translate(-74.000000, -110.717031) ">
                            <use fill="black" fill-opacity="1" filter="url(#filter-10)" xlink:href="#path-9"></use>
                            <use fill="url(#linearGradient-8)" fill-rule="evenodd" xlink:href="#path-9"></use>
                        </g>
                    </g>
                </g>
            </g>
            <path d="M494,333.5 C496.666667,333.5 499.083333,333.291667 501.25,332.875 C503.416667,332.458333 505.166667,332 506.5,331.5 L506.5,331.5 L506.5,279.75 L528.75,279.75 C549.416667,279.75 564.958333,275.041667 575.375,265.625 C585.791667,256.208333 591,243.666667 591,228 C591,212.333333 585.791667,199.916667 575.375,190.75 C564.958333,181.583333 548.916667,177 527.25,177 C520.916667,177 514.166667,177.333333 507,178 C499.833333,178.666667 493.666667,179.916667 488.5,181.75 C485.666667,182.583333 483.458333,183.791667 481.875,185.375 C480.291667,186.958333 479.5,189.166667 479.5,192 L479.5,192 L479.5,321 C479.5,325.5 480.625,328.708333 482.875,330.625 C485.125,332.541667 488.833333,333.5 494,333.5 Z M527,258 L506.25,258 L506.25,200.75 C509.25,200.25 512.625,199.833333 516.375,199.5 C520.125,199.166667 523.916667,199 527.75,199 C539.416667,199 548.375,201.333333 554.625,206 C560.875,210.666667 564,218 564,228 C564,238 560.708333,245.5 554.125,250.5 C547.541667,255.5 538.5,258 527,258 L527,258 Z M714,332.25 C717,332.25 719.375,331.291667 721.125,329.375 C722.875,327.458333 723.75,324.583333 723.75,320.75 C723.75,318.583333 723.416667,316.583333 722.75,314.75 C722.083333,312.916667 721.416667,311.5 720.75,310.5 L720.75,310.5 L648.75,310.5 L648.75,265 L705.25,265 C708.25,265 710.625,264.083333 712.375,262.25 C714.125,260.416667 715,257.583333 715,253.75 C715,251.583333 714.708333,249.583333 714.125,247.75 C713.541667,245.916667 712.833333,244.5 712,243.5 L712,243.5 L648.75,243.5 L648.75,202 L712.75,202 C715.75,202 718.125,201 719.875,199 C721.625,197 722.5,194.166667 722.5,190.5 C722.5,188.333333 722.208333,186.333333 721.625,184.5 C721.041667,182.666667 720.333333,181.25 719.5,180.25 L719.5,180.25 L636.75,180.25 C632.416667,180.25 628.916667,181.541667 626.25,184.125 C623.583333,186.708333 622.25,190.166667 622.25,194.5 L622.25,194.5 L622.25,317.75 C622.25,322.083333 623.583333,325.583333 626.25,328.25 C628.916667,330.916667 632.416667,332.25 636.75,332.25 L636.75,332.25 L714,332.25 Z M864.5,333.75 C868.333333,333.75 871.666667,333.25 874.5,332.25 C877.333333,331.25 879.666667,330 881.5,328.5 L881.5,328.5 L881.5,190.5 C881.5,186.166667 880.375,183.083333 878.125,181.25 C875.875,179.416667 872.25,178.5 867.25,178.5 C864.75,178.5 862.416667,178.708333 860.25,179.125 C858.083333,179.541667 856.333333,179.916667 855,180.25 L855,180.25 L855,227.75 C855,239.583333 855.083333,251.708333 855.25,264.125 C855.416667,276.541667 856.166667,289.083333 857.5,301.75 L857.5,301.75 L856.5,302 C855.333333,299.5 853.958333,296.625 852.375,293.375 C850.791667,290.125 849.125,286.75 847.375,283.25 C845.625,279.75 843.833333,276.25 842,272.75 C840.166667,269.25 838.333333,265.916667 836.5,262.75 L836.5,262.75 L795,190.75 C792.166667,185.916667 789,182.666667 785.5,181 C782,179.333333 777.916667,178.5 773.25,178.5 C769.75,178.5 766.458333,179.041667 763.375,180.125 C760.291667,181.208333 757.916667,182.666667 756.25,184.5 L756.25,184.5 L756.25,321.5 C756.25,325.833333 757.375,328.916667 759.625,330.75 C761.875,332.583333 765.5,333.5 770.5,333.5 C772.833333,333.5 775.125,333.291667 777.375,332.875 C779.625,332.458333 781.333333,332.083333 782.5,331.75 L782.5,331.75 L782.5,266.5 C782.5,257.666667 782.333333,248.291667 782,238.375 C781.666667,228.458333 781.083333,219.166667 780.25,210.5 L780.25,210.5 L781.5,210.25 C782.666667,212.75 784.041667,215.625 785.625,218.875 C787.208333,222.125 788.875,225.5 790.625,229 C792.375,232.5 794.208333,236 796.125,239.5 C798.041667,243 799.916667,246.333333 801.75,249.5 L801.75,249.5 L843,321.25 C845.833333,326.083333 848.958333,329.375 852.375,331.125 C855.791667,332.875 859.833333,333.75 864.5,333.75 Z M969.25,333.5 C971.75,333.5 974.125,333.291667 976.375,332.875 C978.625,332.458333 980.333333,332 981.5,331.5 L981.5,331.5 L981.5,202.25 L1019.25,202.25 C1025.75,202.25 1029,198.333333 1029,190.5 C1029,188.333333 1028.70833,186.333333 1028.125,184.5 C1027.54167,182.666667 1026.91667,181.25 1026.25,180.25 L1026.25,180.25 L917.5,180.25 C914.5,180.25 912.125,181.208333 910.375,183.125 C908.625,185.041667 907.75,187.833333 907.75,191.5 C907.75,193.833333 908.041667,195.916667 908.625,197.75 C909.208333,199.583333 909.916667,201.083333 910.75,202.25 L910.75,202.25 L955,202.25 L955,321 C955,325.5 956.083333,328.708333 958.25,330.625 C960.416667,332.541667 964.083333,333.5 969.25,333.5 Z M1154.5,334.25 C1157.83333,334.25 1160.70833,333.708333 1163.125,332.625 C1165.54167,331.541667 1167.5,330.166667 1169,328.5 C1165.83333,318.5 1162.25,307.333333 1158.25,295 C1154.25,282.666667 1150.08333,270.083333 1145.75,257.25 C1141.41667,244.416667 1137.08333,231.958333 1132.75,219.875 C1128.41667,207.791667 1124.41667,197 1120.75,187.5 C1119.41667,184.166667 1116.83333,181.833333 1113,180.5 C1109.16667,179.166667 1104.83333,178.5 1100,178.5 C1096.33333,178.5 1092.75,178.958333 1089.25,179.875 C1085.75,180.791667 1083.16667,181.75 1081.5,182.75 C1078.16667,191.25 1074.25,201.458333 1069.75,213.375 C1065.25,225.291667 1060.79167,237.416667 1056.375,249.75 C1051.95833,262.083333 1047.79167,273.791667 1043.875,284.875 C1039.95833,295.958333 1036.91667,305 1034.75,312 C1033.91667,314.166667 1033.25,316.125 1032.75,317.875 C1032.25,319.625 1032,321.416667 1032,323.25 C1032,326.916667 1033.33333,329.666667 1036,331.5 C1038.66667,333.333333 1042.08333,334.25 1046.25,334.25 C1048.58333,334.25 1050.58333,334.083333 1052.25,333.75 C1053.91667,333.416667 1055.5,332.916667 1057,332.25 L1057,332.25 L1069.25,294 L1130.25,294 L1139.75,322.75 C1141.08333,326.916667 1142.75,329.875 1144.75,331.625 C1146.75,333.375 1150,334.25 1154.5,334.25 Z M1124.5,272.5 L1075.25,272.5 C1077.25,266.5 1079.33333,260.291667 1081.5,253.875 C1083.66667,247.458333 1085.83333,241.125 1088,234.875 C1090.16667,228.625 1092.25,222.666667 1094.25,217 C1096.25,211.333333 1098.08333,206.25 1099.75,201.75 L1099.75,201.75 L1101,201.75 C1102.16667,205.583333 1103.66667,210.208333 1105.5,215.625 C1107.33333,221.041667 1109.29167,226.833333 1111.375,233 C1113.45833,239.166667 1115.625,245.625 1117.875,252.375 C1120.125,259.125 1122.33333,265.833333 1124.5,272.5 L1124.5,272.5 Z M1261.5,335.5 C1271.16667,335.5 1279.16667,334.583333 1285.5,332.75 C1291.83333,330.916667 1296.83333,328.833333 1300.5,326.5 C1303.33333,324.833333 1305.375,323 1306.625,321 C1307.875,319 1308.5,316.833333 1308.5,314.5 C1308.5,311.666667 1307.70833,309.166667 1306.125,307 C1304.54167,304.833333 1302.83333,303.166667 1301,302 C1296.66667,305 1291.5,307.666667 1285.5,310 C1279.5,312.333333 1272.41667,313.5 1264.25,313.5 C1248.91667,313.5 1236.58333,308.666667 1227.25,299 C1217.91667,289.333333 1213.25,275.083333 1213.25,256.25 C1213.25,246.916667 1214.5,238.666667 1217,231.5 C1219.5,224.333333 1222.95833,218.333333 1227.375,213.5 C1231.79167,208.666667 1237.04167,205 1243.125,202.5 C1249.20833,200 1255.91667,198.75 1263.25,198.75 C1271.75,198.75 1278.79167,200 1284.375,202.5 C1289.95833,205 1294.91667,207.666667 1299.25,210.5 C1301.41667,209.5 1303.29167,207.916667 1304.875,205.75 C1306.45833,203.583333 1307.25,201.083333 1307.25,198.25 C1307.25,195.583333 1306.125,192.916667 1303.875,190.25 C1301.625,187.583333 1298.45833,185.25 1294.375,183.25 C1290.29167,181.25 1285.375,179.625 1279.625,178.375 C1273.875,177.125 1267.41667,176.5 1260.25,176.5 C1250.08333,176.5 1240.5,178.208333 1231.5,181.625 C1222.5,185.041667 1214.625,190.083333 1207.875,196.75 C1201.125,203.416667 1195.75,211.75 1191.75,221.75 C1187.75,231.75 1185.75,243.25 1185.75,256.25 C1185.75,269.583333 1187.70833,281.208333 1191.625,291.125 C1195.54167,301.041667 1200.91667,309.291667 1207.75,315.875 C1214.58333,322.458333 1222.58333,327.375 1231.75,330.625 C1240.91667,333.875 1250.83333,335.5 1261.5,335.5 Z M1403.25,335.5 C1413.91667,335.5 1423.75,333.791667 1432.75,330.375 C1441.75,326.958333 1449.58333,321.916667 1456.25,315.25 C1462.91667,308.583333 1468.125,300.291667 1471.875,290.375 C1475.625,280.458333 1477.5,269 1477.5,256 C1477.5,243 1475.58333,231.583333 1471.75,221.75 C1467.91667,211.916667 1462.66667,203.625 1456,196.875 C1449.33333,190.125 1441.5,185.041667 1432.5,181.625 C1423.5,178.208333 1413.75,176.5 1403.25,176.5 C1392.91667,176.5 1383.20833,178.208333 1374.125,181.625 C1365.04167,185.041667 1357.16667,190.125 1350.5,196.875 C1343.83333,203.625 1338.58333,211.916667 1334.75,221.75 C1330.91667,231.583333 1329,243 1329,256 C1329,269 1330.875,280.458333 1334.625,290.375 C1338.375,300.291667 1343.54167,308.583333 1350.125,315.25 C1356.70833,321.916667 1364.54167,326.958333 1373.625,330.375 C1382.70833,333.791667 1392.58333,335.5 1403.25,335.5 Z M1403.25,313.5 C1389.08333,313.5 1377.75,308.583333 1369.25,298.75 C1360.75,288.916667 1356.5,274.666667 1356.5,256 C1356.5,237.5 1360.79167,223.333333 1369.375,213.5 C1377.95833,203.666667 1389.25,198.75 1403.25,198.75 C1417.58333,198.75 1429,203.625 1437.5,213.375 C1446,223.125 1450.25,237.333333 1450.25,256 C1450.25,274.666667 1446,288.916667 1437.5,298.75 C1429,308.583333 1417.58333,313.5 1403.25,313.5 Z M1560.75,335 C1572.91667,335 1584,333.375 1594,330.125 C1604,326.875 1612.54167,321.916667 1619.625,315.25 C1626.70833,308.583333 1632.16667,300.208333 1636,290.125 C1639.83333,280.041667 1641.75,268.25 1641.75,254.75 C1641.75,241.75 1639.75,230.375 1635.75,220.625 C1631.75,210.875 1626.08333,202.75 1618.75,196.25 C1611.41667,189.75 1602.625,184.916667 1592.375,181.75 C1582.125,178.583333 1570.83333,177 1558.5,177 C1552,177 1545.33333,177.291667 1538.5,177.875 C1531.66667,178.458333 1525.33333,179.666667 1519.5,181.5 C1516.66667,182.333333 1514.45833,183.541667 1512.875,185.125 C1511.29167,186.708333 1510.5,188.916667 1510.5,191.75 L1510.5,191.75 L1510.5,317 C1510.5,323.5 1514.33333,328 1522,330.5 C1528.16667,332.5 1534.83333,333.75 1542,334.25 C1549.16667,334.75 1555.41667,335 1560.75,335 Z M1560.75,313 C1556.58333,313 1552.45833,312.875 1548.375,312.625 C1544.29167,312.375 1540.58333,311.833333 1537.25,311 L1537.25,311 L1537.25,200.75 C1543.08333,199.583333 1550.41667,199 1559.25,199 C1566.91667,199 1574.08333,200.083333 1580.75,202.25 C1587.41667,204.416667 1593.25,207.75 1598.25,212.25 C1603.25,216.75 1607.16667,222.541667 1610,229.625 C1612.83333,236.708333 1614.25,245.166667 1614.25,255 C1614.25,274.166667 1609.66667,288.625 1600.5,298.375 C1591.33333,308.125 1578.08333,313 1560.75,313 Z M1766.25,332.25 C1769.25,332.25 1771.625,331.291667 1773.375,329.375 C1775.125,327.458333 1776,324.583333 1776,320.75 C1776,318.583333 1775.66667,316.583333 1775,314.75 C1774.33333,312.916667 1773.66667,311.5 1773,310.5 L1773,310.5 L1701,310.5 L1701,265 L1757.5,265 C1760.5,265 1762.875,264.083333 1764.625,262.25 C1766.375,260.416667 1767.25,257.583333 1767.25,253.75 C1767.25,251.583333 1766.95833,249.583333 1766.375,247.75 C1765.79167,245.916667 1765.08333,244.5 1764.25,243.5 L1764.25,243.5 L1701,243.5 L1701,202 L1765,202 C1768,202 1770.375,201 1772.125,199 C1773.875,197 1774.75,194.166667 1774.75,190.5 C1774.75,188.333333 1774.45833,186.333333 1773.875,184.5 C1773.29167,182.666667 1772.58333,181.25 1771.75,180.25 L1771.75,180.25 L1689,180.25 C1684.66667,180.25 1681.16667,181.541667 1678.5,184.125 C1675.83333,186.708333 1674.5,190.166667 1674.5,194.5 L1674.5,194.5 L1674.5,317.75 C1674.5,322.083333 1675.83333,325.583333 1678.5,328.25 C1681.16667,330.916667 1684.66667,332.25 1689,332.25 L1689,332.25 L1766.25,332.25 Z" id="PENTACODE" fill="url(#linearGradient-11)" fill-rule="nonzero"></path>
        </g>
    </g>
</svg>